<svg xmlns="http://www.w3.org/2000/svg" viewBox="0 0 428 334"><defs><style>.cls-1{fill:#f1e0d7;}.cls-2{fill:#d8c2c0;}.cls-3{fill:#2d2216;}.cls-4{fill:none;stroke:#7a3029;stroke-miterlimit:10;}</style></defs><title>arthur</title><g id="picc"><ellipse class="cls-1" cx="36.35" cy="203.8" rx="18.86" ry="28.69" transform="translate(-30.15 7.75) rotate(-8.62)"/><ellipse class="cls-1" cx="383.1" cy="189.69" rx="28.69" ry="18.86" transform="translate(140.11 541.41) rotate(-81.7)"/><ellipse class="cls-1" cx="212.63" cy="165.33" rx="175.28" ry="146.88" transform="translate(-0.47 0.61) rotate(-0.16)"/><path class="cls-2" d="M201.64,85.81c-54.5,33.31-94.65,63.85-81.69,108.73C125,167.4,164.32,128.73,201.64,85.81Z"/><path class="cls-2" d="M307.33,132.24c16.38,41.24,28.41,84.86,36.44,130.66L356,250.16C347.72,204.19,331.67,164.73,307.33,132.24Z"/><path class="cls-2" d="M111.43,147.55c-19.11,41.85-36.12,82-36.27,108.94L69,249.44C65,205.24,79.64,171.56,111.43,147.55Z"/><path class="cls-3" d="M187.76,113.18c-22.07,24.66,6.78,72.05,19.84,59-10.18-2,31.88-32.06,29.4-39.44s61,49.27,85.43,57.15L313.28,144C338.4,197.7,350.83,216.45,353,265.2c55.2-113.42,40.27-187.42-10.48-223.78-1.8-1.29-9.37.59-11.25-.62s10.6-8.15,8.76-9.22-17.79,3.88-19.64,2.91c-2.27-1.19,9.67-11.64,7.31-12.72-2.11-1-18.5,7.44-20.66,6.56C178.37-23.78-51,76.13,70.09,248.79c-.44-60.77,3.4-63.36,39.08-94.39-10.27,21.74-5.75,34.56,10.77,40.14C115.68,163.63,138,153.08,187.76,113.18Z"/><ellipse cx="152.45" cy="192.01" rx="10.15" ry="24.29" transform="translate(-0.55 0.43) rotate(-0.16)"/><ellipse cx="270.49" cy="188.6" rx="10.15" ry="24.29" transform="translate(-0.54 0.77) rotate(-0.16)"/><path class="cls-4" d="M186.94,257.07c17.24,9.79,38.93,9,49.19-.14"/></g></svg>