<?xml version="1.0" encoding="utf-8"?>
<!-- Generator: Adobe Illustrator 21.1.0, SVG Export Plug-In . SVG Version: 6.00 Build 0)  -->
<svg version="1.1" id="Camada_1" xmlns="http://www.w3.org/2000/svg" xmlns:xlink="http://www.w3.org/1999/xlink" x="0px" y="0px"
	 viewBox="0 0 186.2 39.8" style="enable-background:new 0 0 186.2 39.8;" xml:space="preserve">
<style type="text/css">
	.st0{fill:#FFFFFF;}
</style>
<title>marca</title>
<path class="st0" d="M0.7,35.3V3.8c0-2,1.7-3.7,3.7-3.7h8.7C20-0.1,25.8,5.3,26,12.2c0.2,6.9-5.2,12.6-12.1,12.8c-0.2,0-0.5,0-0.7,0
	h-1.3c-2.1,0-3.7-1.7-3.7-3.7c0-2.1,1.7-3.7,3.7-3.7l0,0h1.3c2.8,0,5-2.2,5-5s-2.2-5-5-5h-5v27.7c0.1,2-1.5,3.7-3.4,3.7
	c-0.1,0-0.2,0-0.3,0c-2,0.1-3.7-1.5-3.7-3.4C0.7,35.5,0.7,35.4,0.7,35.3L0.7,35.3z"/>
<path class="st0" d="M38.6,4.7c0,1.2-0.5,2.4-1.3,3.2c-1.8,1.8-4.7,1.8-6.6,0c-0.9-0.8-1.4-2-1.3-3.2c-0.1-2.6,1.9-4.7,4.4-4.9
	c2.6-0.1,4.7,1.9,4.9,4.4C38.6,4.4,38.6,4.6,38.6,4.7z M37.7,35.3c0,2.1-1.7,3.7-3.7,3.7c-2.1,0-3.7-1.7-3.7-3.7l0,0v-21
	c0-2.1,1.7-3.7,3.7-3.7c2.1,0,3.7,1.7,3.7,3.7l0,0V35.3z"/>
<path class="st0" d="M67.8,17.3c0,1-0.4,2-1.2,2.7C66,20.7,65,21.2,64,21.2c-1.2-0.3-2.2-0.8-3.1-1.6c-1.2-1-2.7-1.5-4.3-1.6
	c-3.7,0-6.8,3-6.8,6.8c0,3.7,3,6.8,6.8,6.8c1.5-0.1,3-0.6,4.2-1.6c0.9-0.8,2-1.3,3.1-1.6c2.1,0.1,3.8,1.7,3.8,3.8
	c-0.1,1-0.5,1.9-1.2,2.6c-1.3,1.4-2.8,2.4-4.6,3.1c-1.7,0.7-3.6,1.1-5.4,1.1c-7.9,0.2-14.4-6-14.6-13.8c-0.2-7.9,6-14.4,13.8-14.6
	c0.3,0,0.5,0,0.8,0c1.9,0,3.7,0.4,5.4,1.1c1.7,0.6,3.3,1.7,4.6,3.1C67.4,15.4,67.8,16.3,67.8,17.3z"/>
<path class="st0" d="M95.6,17.3c0,1-0.4,2-1.2,2.7c-0.7,0.7-1.7,1.2-2.7,1.2c-1.2-0.3-2.2-0.8-3.1-1.6c-1.2-1-2.7-1.5-4.3-1.6
	c-3.7,0-6.8,3-6.8,6.8c0,3.7,3,6.8,6.8,6.8l0,0c1.5-0.1,3-0.6,4.2-1.6c0.9-0.8,2-1.3,3.1-1.6c2.1,0.1,3.8,1.7,3.8,3.8
	c-0.1,1-0.5,1.9-1.2,2.6c-1.3,1.4-2.8,2.4-4.6,3.1C87.9,38.6,86,39,84.2,39c-7.9,0.2-14.4-6-14.6-13.8s6-14.4,13.8-14.6
	c0.3,0,0.5,0,0.8,0c1.9,0,3.7,0.4,5.4,1.1c1.7,0.6,3.3,1.7,4.6,3.1C95.1,15.4,95.5,16.3,95.6,17.3z"/>
<path class="st0" d="M100.2,35.3V3.8c0-2.1,1.7-3.7,3.8-3.7h8.7c6.9-0.2,12.6,5.2,12.8,12.1c0.2,6.9-5.2,12.6-12.1,12.8
	c-0.2,0-0.5,0-0.7,0h-1.3c-2.1,0-3.7-1.7-3.7-3.7c0-2.1,1.7-3.7,3.7-3.7l0,0h1.3c2.8,0,5-2.2,5-5s-2.2-5-5-5h-5v27.7
	c0,2.1-1.7,3.7-3.7,3.7C102,39,100.3,37.4,100.2,35.3C100.3,35.3,100.3,35.3,100.2,35.3L100.2,35.3z"/>
<path class="st0" d="M154.6,29.9c0,0.7-0.2,1.4-0.6,2c-1.2,2.2-3,4-5.2,5.2c-2.2,1.3-4.6,1.9-7.1,1.9c-7.9,0.2-14.4-6-14.6-13.8
	s6-14.4,13.8-14.6c0.3,0,0.5,0,0.8,0c2,0,4,0.5,5.8,1.3s3.5,2,4.9,3.5c1.2,1.2,2,2.7,2.1,4.4c0,1.3-0.7,2.4-1.9,3l-14,8
	c0.9,0.5,2,0.7,3,0.7c1.5,0,2.9-0.4,4-1.4l2.2-2.5c0.7-0.8,1.7-1.3,2.8-1.4c1,0,2,0.4,2.7,1.1C154.1,28,154.5,28.9,154.6,29.9z
	 M144.7,18.7c-3.3-1.7-7.4-0.4-9,2.9c-0.4,0.8-0.7,1.8-0.7,2.7L144.7,18.7z"/>
<path class="st0" d="M185.3,35.3c0.1,2-1.5,3.7-3.4,3.7c-0.1,0-0.2,0-0.3,0c-1.4,0.1-2.7-0.7-3.3-1.9c-2.2,1.3-4.6,1.9-7.1,1.9
	c-7.9,0-14.2-6.3-14.3-14.2s6.3-14.2,14.2-14.3c2.4,0,4.7,0.6,6.8,1.7V3.7c0-2.1,1.7-3.7,3.7-3.7c2.1,0,3.7,1.7,3.7,3.7L185.3,35.3z
	 M177.9,24.8c0-3.7-3-6.7-6.7-6.7s-6.7,3-6.7,6.7s3,6.7,6.7,6.7c1.8,0,3.5-0.7,4.7-1.9C177.2,28.3,177.9,26.6,177.9,24.8L177.9,24.8
	z"/>
</svg>
