<?xml version="1.0" encoding="utf-8"?>
<!-- Generator: Adobe Illustrator 21.1.0, SVG Export Plug-In . SVG Version: 6.00 Build 0)  -->
<svg version="1.1" id="Camada_1" xmlns="http://www.w3.org/2000/svg" xmlns:xlink="http://www.w3.org/1999/xlink" x="0px" y="0px"
	 viewBox="0 0 186.2 111.8" style="enable-background:new 0 0 186.2 111.8;" xml:space="preserve">
<style type="text/css">
	.st0{fill:#2D2216;}
	.st1{fill:#FFFFFF;stroke:#E6E6E6;stroke-miterlimit:10;}
	.st2{fill:#F1E0D7;}
	.st3{fill:#D8C2C0;}
	.st4{fill:#17110B;}
	.st5{fill:#7A3029;}
	.st6{fill:#A24037;}
	.st7{fill:#FC9686;}
	.st8{fill:#FFFFFF;}
</style>
<title>marca</title>
<path class="st0" d="M104.7,15.1c27.3-13,30.6,1.1,20.3,30.6c3.1,4.4,7.1,1,11.2-3.5c-3.1,11.8-10.6,16.8-26,9.8
	c0.3,2.2,1.9,4.1,4,4.8c-2.6,1.3-5,0.4-6.9-4.6L104.7,15.1z"/>
<path class="st1" d="M103.7,21.7l6.7-10.8C90-3.1,71.1-1.9,53.5,10L61,22.2L103.7,21.7z"/>
<ellipse transform="matrix(0.9891 -0.1471 0.1471 0.9891 -5.9861 8.2722)" class="st2" cx="52.9" cy="44.6" rx="3.1" ry="4.7"/>
<ellipse transform="matrix(0.1471 -0.9891 0.9891 0.1471 51.788 144.9302)" class="st2" cx="109.9" cy="42.4" rx="4.7" ry="3.1"/>
<ellipse class="st2" cx="81.9" cy="38.3" rx="28.8" ry="24.2"/>
<path class="st3" d="M80.2,25.3c-9,5.5-15.6,10.5-13.5,17.8C67.5,38.7,74,32.3,80.2,25.3z"/>
<path class="st3" d="M97.5,33c2.7,7,4.7,14.2,5.9,21.5l2-2.1C104.4,45.4,101.6,38.7,97.5,33z"/>
<path class="st3" d="M65.3,35.4c-3.2,6.9-6,13.5-6,17.9l-1-1.2C57.6,44.8,60.1,39.3,65.3,35.4z"/>
<path class="st0" d="M80.2,25.3c7.5,8.3,14.5,15.4,19.8,17.1l-1.5-7.5c4.1,8.8,6.5,17.3,6.9,25.3c30.2-68.9-79.5-60-47,0.7
	c0-10,0.7-19.3,6.6-24.4c-1.7,3.6-1,5.7,1.8,6.6C66,38,72,31.9,80.2,25.3z"/>
<path class="st4" d="M105.2,21.5c6.1,2,5.4,9.4,5.4,16.3C110.1,31.2,109,25,105.2,21.5z"/>
<ellipse cx="72" cy="42.7" rx="1.7" ry="4"/>
<ellipse cx="91.4" cy="42.2" rx="1.7" ry="4"/>
<path class="st5" d="M77.2,53c3.6,6.6,6.3,3.7,8.9,0C86.1,53,77.2,52.9,77.2,53z"/>
<path class="st6" d="M79.1,55.7c3,2.9,5,0,7-2.7C82.5,53.4,79,53.8,79.1,55.7z"/>
<polygon class="st7" points="85.7,5.5 85.7,8.3 83.7,8.3 83.7,10.3 80.5,10.3 80.5,8.3 78.4,8.3 78.4,5.5 80.5,5.5 80.5,3.4 
	83.7,3.4 83.7,5.5 "/>
<path class="st8" d="M0.7,107.3V75.8c0-2,1.7-3.7,3.7-3.7h8.7C20,71.9,25.8,77.3,26,84.2c0.2,6.9-5.2,12.6-12.1,12.8
	c-0.2,0-0.5,0-0.7,0h-1.3c-2.1,0-3.7-1.7-3.7-3.7c0-2.1,1.7-3.7,3.7-3.7c0,0,0,0,0,0h1.3c2.8,0,5-2.2,5-5s-2.2-5-5-5h-5v27.7
	c0.1,2-1.5,3.7-3.4,3.7c-0.1,0-0.2,0-0.3,0c-2,0.1-3.7-1.5-3.7-3.4C0.7,107.5,0.7,107.4,0.7,107.3L0.7,107.3z"/>
<path class="st8" d="M38.6,76.7c0,1.2-0.5,2.4-1.3,3.2c-1.8,1.8-4.7,1.8-6.6,0c-0.9-0.8-1.4-2-1.3-3.2c-0.1-2.6,1.9-4.7,4.4-4.9
	c2.6-0.1,4.7,1.9,4.9,4.4C38.6,76.4,38.6,76.6,38.6,76.7z M37.7,107.3c0,2.1-1.7,3.7-3.7,3.7c-2.1,0-3.7-1.7-3.7-3.7c0,0,0,0,0,0
	v-21c0-2.1,1.7-3.7,3.7-3.7c2.1,0,3.7,1.7,3.7,3.7c0,0,0,0,0,0V107.3z"/>
<path class="st8" d="M67.8,89.3c0,1-0.4,2-1.2,2.7C66,92.7,65,93.2,64,93.2c-1.2-0.3-2.2-0.8-3.1-1.6c-1.2-1-2.7-1.5-4.3-1.6
	c-3.7,0-6.8,3-6.8,6.8c0,3.7,3,6.8,6.8,6.8c1.5-0.1,3-0.6,4.2-1.6c0.9-0.8,2-1.3,3.1-1.6c2.1,0.1,3.8,1.7,3.8,3.8
	c-0.1,1-0.5,1.9-1.2,2.6c-1.3,1.4-2.8,2.4-4.6,3.1c-1.7,0.7-3.6,1.1-5.4,1.1c-7.9,0.2-14.4-6-14.6-13.8c-0.2-7.9,6-14.4,13.8-14.6
	c0.3,0,0.5,0,0.8,0c1.9,0,3.7,0.4,5.4,1.1c1.7,0.6,3.3,1.7,4.6,3.1C67.4,87.4,67.8,88.3,67.8,89.3z"/>
<path class="st8" d="M95.6,89.3c0,1-0.4,2-1.2,2.7c-0.7,0.7-1.7,1.2-2.7,1.2c-1.2-0.3-2.2-0.8-3.1-1.6c-1.2-1-2.7-1.5-4.3-1.6
	c-3.7,0-6.8,3-6.8,6.8c0,3.7,3,6.8,6.8,6.8l0,0c1.5-0.1,3-0.6,4.2-1.6c0.9-0.8,2-1.3,3.1-1.6c2.1,0.1,3.8,1.7,3.8,3.8
	c-0.1,1-0.5,1.9-1.2,2.6c-1.3,1.4-2.8,2.4-4.6,3.1c-1.7,0.7-3.6,1.1-5.4,1.1c-7.9,0.2-14.4-6-14.6-13.8s6-14.4,13.8-14.6
	c0.3,0,0.5,0,0.8,0c1.9,0,3.7,0.4,5.4,1.1c1.7,0.6,3.3,1.7,4.6,3.1C95.1,87.4,95.5,88.3,95.6,89.3z"/>
<path class="st8" d="M100.2,107.3V75.8c0-2.1,1.7-3.7,3.8-3.7h8.7c6.9-0.2,12.6,5.2,12.8,12.1c0.2,6.9-5.2,12.6-12.1,12.8
	c-0.2,0-0.5,0-0.7,0h-1.3c-2.1,0-3.7-1.7-3.7-3.7c0-2.1,1.7-3.7,3.7-3.7c0,0,0,0,0,0h1.3c2.8,0,5-2.2,5-5s-2.2-5-5-5h-5v27.7
	c0,2.1-1.7,3.7-3.7,3.7C102,111,100.3,109.4,100.2,107.3C100.3,107.3,100.3,107.3,100.2,107.3L100.2,107.3z"/>
<path class="st8" d="M154.6,101.9c0,0.7-0.2,1.4-0.6,2c-1.2,2.2-3,4-5.2,5.2c-2.2,1.3-4.6,1.9-7.1,1.9c-7.9,0.2-14.4-6-14.6-13.8
	s6-14.4,13.8-14.6c0.3,0,0.5,0,0.8,0c2,0,4,0.5,5.8,1.3c1.8,0.8,3.5,2,4.9,3.5c1.2,1.2,2,2.7,2.1,4.4c0,1.3-0.7,2.4-1.9,3l-14,8
	c0.9,0.5,2,0.7,3,0.7c1.5,0,2.9-0.4,4-1.4l2.2-2.5c0.7-0.8,1.7-1.3,2.8-1.4c1,0,2,0.4,2.7,1.1C154.1,100,154.5,100.9,154.6,101.9z
	 M144.7,90.7c-3.3-1.7-7.4-0.4-9,2.9c-0.4,0.8-0.7,1.8-0.7,2.7L144.7,90.7z"/>
<path class="st8" d="M185.3,107.3c0.1,2-1.5,3.7-3.4,3.7c-0.1,0-0.2,0-0.3,0c-1.4,0.1-2.7-0.7-3.3-1.9c-2.2,1.3-4.6,1.9-7.1,1.9
	c-7.9,0-14.2-6.3-14.3-14.2s6.3-14.2,14.2-14.3c2.4,0,4.7,0.6,6.8,1.7v-8.5c0-2.1,1.7-3.7,3.7-3.7c2.1,0,3.7,1.7,3.7,3.7
	L185.3,107.3z M177.9,96.8c0-3.7-3-6.7-6.7-6.7c-3.7,0-6.7,3-6.7,6.7c0,3.7,3,6.7,6.7,6.7c1.8,0,3.5-0.7,4.7-1.9
	C177.2,100.3,177.9,98.6,177.9,96.8L177.9,96.8z"/>
</svg>
