<?xml version="1.0" encoding="utf-8"?>
<!-- Generator: Adobe Illustrator 21.1.0, SVG Export Plug-In . SVG Version: 6.00 Build 0)  -->
<svg version="1.1" id="Calque_1" xmlns="http://www.w3.org/2000/svg" xmlns:xlink="http://www.w3.org/1999/xlink" x="0px" y="0px"
	 viewBox="0 0 158 137" style="enable-background:new 0 0 158 137;" xml:space="preserve">
<style type="text/css">
	.st0{fill:url(#SVGID_1_);}
	.st1{fill:url(#SVGID_2_);}
	.st2{fill:#C33A59;}
	.st3{fill:#B30930;}
	.st4{fill:#00B8C6;}
	.st5{fill:#F7931E;}
</style>
<title>ilustras</title>
<linearGradient id="SVGID_1_" gradientUnits="userSpaceOnUse" x1="37.014" y1="79.8911" x2="52.3641" y2="69.144" gradientTransform="matrix(1 0 0 -1 0 138)">
	<stop  offset="0" style="stop-color:#941100"/>
	<stop  offset="0.25" style="stop-color:#941100"/>
	<stop  offset="0.62" style="stop-color:#96724D"/>
	<stop  offset="0.88" style="stop-color:#CC772E"/>
	<stop  offset="1" style="stop-color:#E17922"/>
</linearGradient>
<path class="st0" d="M4.7,113.7c19.5-39.1,42-76,77.3-103.3l6.7,6.7c-37.3,28.6-59.8,64.4-76,103.3L4.7,113.7z"/>
<linearGradient id="SVGID_2_" gradientUnits="userSpaceOnUse" x1="101.014" y1="64.8911" x2="116.3641" y2="54.144" gradientTransform="matrix(1 0 0 -1 0 138)">
	<stop  offset="0" style="stop-color:#941100"/>
	<stop  offset="0.25" style="stop-color:#941100"/>
	<stop  offset="0.62" style="stop-color:#96724D"/>
	<stop  offset="0.88" style="stop-color:#CC772E"/>
	<stop  offset="1" style="stop-color:#E17922"/>
</linearGradient>
<path class="st1" d="M68.7,128.7c19.5-39.1,42-76,77.3-103.3l6.7,6.7c-37.3,28.6-59.8,64.4-76,103.3L68.7,128.7z"/>
<ellipse class="st2" cx="39.8" cy="88.8" rx="10.5" ry="9"/>
<path class="st3" d="M38.8,84.3c-5.7,1.8-7,4.9-2.2,9.9C35.3,90.9,36,87.6,38.8,84.3z"/>
<ellipse transform="matrix(0.5243 -0.8515 0.8515 0.5243 -9.2395 111.0216)" class="st2" cx="94.7" cy="63.8" rx="10.5" ry="9"/>
<path class="st3" d="M99.1,65.3c1.5-5.8-0.5-8.6-7.2-7C95.2,58.9,97.7,61.2,99.1,65.3z"/>
<ellipse transform="matrix(0.8285 -0.5599 0.5599 0.8285 -4.2146 53.8038)" class="st2" cx="85.7" cy="33.8" rx="10.5" ry="9"/>
<path class="st3" d="M82.4,30.6c-3.7,4.7-3.1,8,3.7,9.4C83.3,38,82,34.9,82.4,30.6z"/>
<ellipse transform="matrix(0.4512 -0.8924 0.8924 0.4512 -69.9902 117.7644)" class="st2" cx="60.8" cy="115.8" rx="9" ry="10.5"/>
<path class="st3" d="M59.6,120.2c5.9,1,8.5-1.2,6.4-7.8C65.7,115.9,63.5,118.5,59.6,120.2z"/>
<path class="st4" d="M35.7,124.7c19.5-39.1,42-76,77.3-103.3l3.7,4.7c-37.3,28.6-59.8,64.4-76,103.3L35.7,124.7z"/>
<path class="st5" d="M87.7,17.3l1.8,3.5l-6.8,1.2v5.3l-5.4-0.8L77,34h-6l-0.7,7H64l-0.7,8l-5.7-0.7L57.2,55L52,53.3l1,4.7l-5,0.3V64
	l-4.3,2.7l0.3,5l-6,0.7C47.7,52.5,66.1,34.2,87.7,17.3z"/>
<path class="st5" d="M92,88l-4-4.1l6.3-2.7l-1.2-5.1l5.4-0.4l-1.1-6.4l5.6-2.3l1.1-6.2l5.7-0.3l0.2-9l6.2-0.7l-0.7-5.8h6l-0.5-5.1
	l6.3-0.5l-1.3-5.6l8.7-0.9l0.5-6l11.8-2C129,43,107,66,92,88z"/>
<path class="st5" d="M69,128l-3-2l1.6-2.7L70,115l2.3-2.3L73,108l3.7-1.9l-1.3-4.9l6.2-1.5l-2.2-5.3l8.4-2.2l-0.5-6l6.2-1
	C83.4,103,69,128,69,128z"/>
<path class="st5" d="M40.2,68.8l2.8,2.9l-6.2,3l1.4,5.1l-5.4,0.7l1.7,7.3l-5.8,1.6l1.2,7l-6.1,1.7l1.6,7.9l-5.6,0.9l1.3,6.6
	l-5.4-0.2l2.2,4.2l-4.7,1.7C13.3,119.1,24.1,90.9,40.2,68.8z"/>
</svg>
