<?xml version="1.0" encoding="utf-8"?>
<!-- Generator: Adobe Illustrator 19.0.0, SVG Export Plug-In . SVG Version: 6.00 Build 0)  -->
<svg version="1.1" id="Calque_1" xmlns="http://www.w3.org/2000/svg" xmlns:xlink="http://www.w3.org/1999/xlink" x="0px" y="0px"
	 viewBox="-215.5 67.1 213.8 152.7" style="enable-background:new -215.5 67.1 213.8 152.7;" xml:space="preserve">
<style type="text/css">
	.st0{fill:#2D2216;}
	.st1{fill:#E6E6E6;}
	.st2{fill:#F1E0D7;}
	.st3{fill:#D8C2C0;}
	.st4{fill:#17110B;}
	.st5{fill:#7A3029;}
	.st6{fill:#A24037;}
	.st7{fill:#FC9686;}
</style>
<title>app_ilustracoes_</title>
<path class="st0" d="M-79.7,102.5c67.5-32.1,75.7,2.8,50.3,75.7c7.7,11,17.6,2.4,27.7-8.7C-9.3,198.7-28,211-66,193.8
	c1.4,6.8,5.2,10.1,10,12c-6.5,3.3-12.4,1-17-11.3L-79.7,102.5z"/>
<path class="st1" d="M-82,118.8l16.7-26.7c-50.7-34.5-97.3-31.6-141-2.3l18.7,30.3L-82,118.8z"/>
<ellipse transform="matrix(-0.1471 -0.9891 0.9891 -0.1471 -411.7933 -4.1193)" class="st2" cx="-207.7" cy="175.5" rx="11.7" ry="7.7"/>
<ellipse transform="matrix(-0.9891 -0.1471 0.1471 -0.9891 -157.6478 328.6404)" class="st2" cx="-66.7" cy="170.2" rx="7.7" ry="11.7"/>
<ellipse class="st2" cx="-135.9" cy="160" rx="71.3" ry="59.7"/>
<path class="st3" d="M-140.3,127.7c-22.2,13.5-38.6,25.8-33.3,44.1C-171.6,160.8-155.6,145.1-140.3,127.7z"/>
<path class="st3" d="M-97.4,146.7c6.7,17.2,11.6,35,14.7,53.2l5-5.2C-81.1,176-87.6,159.9-97.4,146.7z"/>
<path class="st3" d="M-177.1,152.7c-7.8,17-14.8,33.3-14.9,44.2l-2.5-2.9C-196,176.1-190,162.4-177.1,152.7z"/>
<path class="st0" d="M-140.3,127.8c18.5,20.6,35.9,38.1,49,42.3l-3.7-18.7c10.1,21.9,16.2,42.8,17,62.7
	c74.7-170.3-196.7-148.3-116.3,1.7c-0.1-24.7,1.8-47.8,16.3-60.3c-4.2,8.8-2.4,14,4.3,16.3C-175.4,159.2-160.6,144-140.3,127.8z"/>
<path class="st4" d="M-78.4,118.4c15.1,4.8,13.4,23.3,13.4,40.2C-66.3,142.2-69,127-78.4,118.4z"/>
<ellipse cx="-160.4" cy="170.8" rx="4.1" ry="9.9"/>
<ellipse cx="-112.5" cy="169.6" rx="4.1" ry="9.9"/>
<path class="st5" d="M-147.6,196.2c8.9,16.3,15.6,9.2,22,0C-125.6,196.2-147.7,196-147.6,196.2z"/>
<path class="st6" d="M-142.9,202.8c7.3,7.2,12.3,0.1,17.4-6.6C-134.4,197.1-143.2,198.1-142.9,202.8z"/>
<polygon class="st7" points="-127,79.2 -127,86.2 -132,86.2 -132,91.2 -140,91.2 -140,86.2 -145,86.2 -145,79.2 -140,79.2 
	-140,74.2 -132,74.2 -132,79.2 "/>
</svg>
