<svg id="Camada_1" data-name="Camada 1" xmlns="http://www.w3.org/2000/svg" viewBox="0 0 209 192"><defs><style>.cls-1{fill:#e6e6e6;}.cls-2{fill:#b3b3b3;}.cls-3{fill:gray;}.cls-4,.cls-7{fill:#ccc;}.cls-5,.cls-6{fill:#999;}.cls-5{opacity:0.5;}.cls-7{opacity:0.4;}</style></defs><title>icons</title><path class="cls-1" d="M10,97.53a985.78,985.78,0,0,0,181.83,0A1.23,1.23,0,0,1,192,98c0,4,.14,7.91-.09,11.85a14.05,14.05,0,0,1-12.71,13.37c-1,.1-2,.13-3,.13-17.11,0-34.23,0-51.34,0-1.65,0-2,.44-2,2.12.08,19.76,0,58.55,0,58.55l-43.52-.16s0-38.31,0-57.47c0-3,0-3-2.93-3H25.66a15.46,15.46,0,0,1-8.17-1.88c-3.62-2.15-6.31-5.19-6.83-9.43C10.06,107.26,10.19,102.36,10,97.53Z"/><path class="cls-1" d="M9.6,97.22c.92-2.1,1.74-4,2.62-6,3.16-6.93,6.41-13.83,9.48-20.8,3.41-7.72,6.65-15.51,10-23.26.67-1.55,1.53-3,2.16-4.59.42-1,1.11-1.16,2.06-1.15q25.85.09,51.7.1c1.38,0,1.88.3,1.92,1.79.09,3.5,2.26,5.53,5.8,5.6,3.29.07,6.59,0,9.88,0,4.51,0,6.43-1.83,6.68-6.29,0-.26.06-.53.13-1h2.11c16.79,0,33.59.1,50.38,0a3.69,3.69,0,0,1,3.91,2.59c2.11,4.94,4.21,9.88,6.36,14.8q5.11,11.67,10.3,23.31c2,4.5,4.09,9,6.13,13.47.18.39.28.81.49,1.41A971.81,971.81,0,0,1,9.6,97.22ZM36.71,78.63a1014.81,1014.81,0,0,0,129.19,0c-.45-1.22-.79-2.14-1.14-3.06-2.69-7.13-5.42-14.24-8-21.39a2,2,0,0,0-2.24-1.54q-53.18,0-106.36,0a2,2,0,0,0-2.23,1.57C43.76,60,41.57,65.69,39.41,71.43,38.54,73.73,37.68,76,36.71,78.63Z"/><path class="cls-2" d="M36.71,78.63c1-2.59,1.83-4.9,2.69-7.2,2.16-5.74,4.35-11.48,6.48-17.24a2,2,0,0,1,2.23-1.57q53.18.06,106.36,0a2,2,0,0,1,2.24,1.54c2.62,7.15,5.35,14.26,8,21.39.35.92.68,1.84,1.14,3.06A1014.81,1014.81,0,0,1,36.71,78.63ZM101,68.25c-2.45.62-4.91,1.1-7.27,1.91A3,3,0,0,0,92,72.27a3,3,0,0,0,1.65,2.13,17.31,17.31,0,0,0,14.61.08c.8-.35,1.84-1.52,1.76-2.19A3.39,3.39,0,0,0,108,70C105.8,69.25,103.43,68.84,101,68.25Z"/><path class="cls-3" d="M101,68.25c2.46.59,4.84,1,7.08,1.79a3.39,3.39,0,0,1,2,2.25c.08.67-1,1.84-1.76,2.19a17.31,17.31,0,0,1-14.61-.08A3,3,0,0,1,92,72.27a3,3,0,0,1,1.71-2.11C96.05,69.35,98.52,68.86,101,68.25Z"/><path class="cls-2" d="M10,98l22.76,1.14c7.58.38,15.17.73,22.75,1,15.17.56,30.34,1,45.52,1.07,15.17.2,30.35,0,45.51-.53,7.58-.23,15.16-.6,22.74-1.06,3.79-.19,7.57-.49,11.36-.73L192,98c-3.77.49-7.53,1-11.31,1.42s-7.55.83-11.34,1.18q-11.36,1-22.75,1.62c-15.18.82-30.39,1-45.6,1-15.2-.21-30.4-.65-45.57-1.54q-11.38-.68-22.74-1.56C25.12,99.46,17.55,98.81,10,98Z"/><path class="cls-4" d="M91,17h20a0,0,0,0,1,0,0V42.62A5.38,5.38,0,0,1,105.62,48H96.38A5.38,5.38,0,0,1,91,42.62V17A0,0,0,0,1,91,17Z"/><path class="cls-4" d="M96.38,6h9.24A5.38,5.38,0,0,1,111,11.38V23a0,0,0,0,1,0,0H91a0,0,0,0,1,0,0V11.38A5.38,5.38,0,0,1,96.38,6Z"/><path class="cls-5" d="M91,23V19l1.59,3a1.9,1.9,0,0,0,1.68,1h14.15a2,2,0,0,0,2-1.56L111,19v6.13H91Z"/><line class="cls-6" x1="93.5" y1="23" x2="91" y2="19"/><path class="cls-6" d="M110,41c-6.38,1.6-12.45,1.9-18,0V29a46.72,46.72,0,0,0,18,0Z"/><polygon class="cls-7" points="107 32 101 39 108 32 107 32"/><polygon class="cls-7" points="104 33 98 40 105 33 104 33"/></svg>