<svg id="Camada_1" data-name="Camada 1" xmlns="http://www.w3.org/2000/svg" viewBox="0 0 59 111"><defs><style>.cls-1{fill:#a4d6e0;}.cls-2{fill:#ccc;}.cls-3{fill:#b3b3b3;}.cls-4{fill:#76c1d1;opacity:0.6;}</style></defs><title>icons</title><rect class="cls-1" x="13" y="32" width="35" height="72" rx="4.62" ry="4.62"/><path class="cls-2" d="M45,33a75.75,75.75,0,0,1-30,0V26.45A2.45,2.45,0,0,1,17.45,24H42.55A2.45,2.45,0,0,1,45,26.45Z"/><polygon class="cls-2" points="19 24 41 24 35 10 25 10 19 24"/><polygon class="cls-3" points="35 10 37 22.53 25.25 24 41 24 35 10"/><path class="cls-4" d="M45,80a48.56,48.56,0,0,1-30,0V52a65.16,65.16,0,0,0,30,0Z"/><path d="M19.21,60.81c-.36.76-.55,1.14-.93,1.89l-.91-.11c1.24-2.39,1.83-3.59,3-6l1,.1c.64,2.6,1,3.89,1.75,6.48l-.94-.07c-.23-.82-.34-1.22-.56-2C20.64,61,20.16,60.92,19.21,60.81Zm2.25-.42c-.2-.75-.29-1.12-.48-1.87-.11-.42-.17-.81-.23-1.18h0c-.13.36-.28.74-.44,1.1-.33.7-.5,1.05-.84,1.75Zm.9-5.07-1.29,1-.68-.07,1-1Z"/><path d="M24.43,56.58l.83,0-.34,6.64-.89,0Z"/><path d="M29.93,63.23a3.41,3.41,0,0,1-1.41.25,2.21,2.21,0,0,1-2.36-2.38,2.39,2.39,0,0,1,2.62-2.34A3,3,0,0,1,30,59l-.2.64a2.11,2.11,0,0,0-1-.22A1.62,1.62,0,0,0,27,61.09a1.59,1.59,0,0,0,1.64,1.73,2.61,2.61,0,0,0,1.09-.22Z"/><path d="M35.24,61a2.27,2.27,0,0,1-2.33,2.5,2.2,2.2,0,0,1-2.37-2.3,2.29,2.29,0,0,1,2.32-2.44A2.22,2.22,0,0,1,35.24,61Zm-3.81.17a1.48,1.48,0,1,0,1.43-1.79A1.56,1.56,0,0,0,31.43,61.13Z"/><path d="M40.68,60.54a2.27,2.27,0,0,1-2.19,2.62A2.2,2.2,0,0,1,36,61a2.29,2.29,0,0,1,2.18-2.57A2.22,2.22,0,0,1,40.68,60.54Zm-3.8.38a1.49,1.49,0,1,0,2.91-.26c-.07-.76-.57-1.69-1.58-1.61A1.57,1.57,0,0,0,36.88,60.92Z"/><path d="M41.27,56.1l.83-.1.83,6.6-.89.11Z"/></svg>