<svg id="Camada_1" data-name="Camada 1" xmlns="http://www.w3.org/2000/svg" viewBox="0 0 117 111"><defs><style>.cls-1{fill:#d6d6d6;}.cls-2{fill:#ccc;}.cls-3{fill:#f2f2f2;}.cls-4{fill:#a4d6e0;}.cls-5{fill:#b3b3b3;}.cls-6{fill:#76c1d1;opacity:0.6;}.cls-7{fill:#e0e0e0;}</style></defs><title>icons</title><polygon class="cls-1" points="8.48 59.28 76.55 35.27 105.76 68.56 34.13 97.03 8.48 59.28"/><polygon class="cls-2" points="8.88 58.37 9.94 53.38 78.53 30.68 76.55 35.27 8.48 59.28 8.88 58.37"/><polygon class="cls-3" points="9.94 53.38 36.77 92.17 34.4 97.68 8.48 59.28 9.94 53.38"/><polygon class="cls-3" points="34.13 97.03 36.77 92.17 108.13 63.05 105.76 68.56 34.13 97.03"/><polygon class="cls-2" points="76.55 35.27 78.53 30.68 108.13 63.05 102.83 65.22 76.55 35.27"/><rect class="cls-4" x="72.43" y="31.87" width="12.17" height="25.03" rx="4.62" ry="4.62" transform="translate(-0.57 1.02) rotate(-0.74)"/><path class="cls-2" d="M83.4,32.15A26.33,26.33,0,0,1,73,32.28l0-2.28a.85.85,0,0,1,.84-.86L82.51,29a.85.85,0,0,1,.86.84Z"/><polygon class="cls-2" points="74.04 29.14 82.03 29.04 79.78 23.98 76.15 24.02 74.04 29.14"/><polygon class="cls-5" points="79.78 23.98 80.57 28.52 76.31 29.11 82.03 29.04 79.78 23.98"/><path class="cls-6" d="M83.61,48.49a16.88,16.88,0,0,1-10.43.13l-.13-9.73a22.65,22.65,0,0,0,10.43-.13Z"/><polygon class="cls-3" points="29 60 41 55 47 65 35 69 29 60"/><polygon class="cls-3" points="40 63 50 60 55 68 45 72 40 63"/><polygon class="cls-3" points="33 62 41 60 47 69 33 73 28 64 33 62"/><polygon class="cls-7" points="35.47 61.38 41 60 42.5 62.25 44.91 61.52 43 61 41 59 35.47 61.38"/><polygon class="cls-7" points="44.09 64.63 47 69 43.84 69.9 48 70 44.09 64.63"/></svg>