<svg id="Camada_1" data-name="Camada 1" xmlns="http://www.w3.org/2000/svg" viewBox="0 0 96 91"><defs><style>.cls-1{fill:#e5ecff;stroke:#acb1bf;stroke-miterlimit:10;}.cls-2{fill:#dee0e5;}</style></defs><title>icons</title><path class="cls-1" d="M16,83.05l2.68-17.37,2-44.4a1.35,1.35,0,0,1,2.52-.63l4.54,13.46a1.35,1.35,0,0,0,2.48-.36l4.33-24.7a1.35,1.35,0,0,1,2.64.08l3.13,20.94a1.35,1.35,0,0,0,2.55.33L50.24,8.16a1.35,1.35,0,0,1,2.57.65L52.34,33a1.35,1.35,0,0,0,2.43.88l9.38-21.51c.91-1.2,4.42-2.21,3.88,1.73L59.1,42.64c-.38,1.26.54,5.21,1.58,4.42,1.77,1,4.8-2.34,8.21-6.95,1.27-1,6.32.95,3.16,5.37-3,7.41-9.4,13.74-17,19.66a21.92,21.92,0,0,0-4.23,9L49.31,84Z"/><polygon class="cls-2" points="49.95 72.47 49.48 72.77 44.58 75.95 49.31 76.58 49.95 72.47"/><polygon class="cls-2" points="19.47 57.48 22.32 71.05 16.93 76.03 18.53 67.9 19.47 57.48"/></svg>