<?xml version="1.0" encoding="utf-8"?>
<!-- Generator: Adobe Illustrator 21.1.0, SVG Export Plug-In . SVG Version: 6.00 Build 0)  -->
<svg version="1.1" id="Calque_1" xmlns="http://www.w3.org/2000/svg" xmlns:xlink="http://www.w3.org/1999/xlink" x="0px" y="0px"
	 viewBox="0 0 148 130" style="enable-background:new 0 0 148 130;" xml:space="preserve">
<style type="text/css">
	.st0{fill:#941100;}
	.st1{fill:#22B573;}
	.st2{fill:none;stroke:#000000;stroke-miterlimit:10;}
	.st3{fill:#009245;}
	.st4{fill:#C33A59;}
	.st5{fill:#B30930;}
</style>
<title>app_</title>
<path class="st0" d="M-0.3,105.7c19.5-39.1,42-76,77.3-103.3L83.7,9c-37.4,28.6-59.8,64.4-76,103.3L-0.3,105.7z"/>
<path class="st0" d="M63.7,120.7c19.5-39.1,42-76,77.3-103.3l6.7,6.7c-37.3,28.6-59.8,64.4-76,103.3L63.7,120.7z"/>
<polygon class="st1" points="76.5,36.7 72.2,30.7 67,38.5 59.5,34.7 59.3,45 50,49 54.7,55 38.7,62.3 48.5,69 41.2,76.7 52,78 
	53.8,87 64.5,83 73.3,91.7 76,82.7 83,83 82.8,74.2 90,71.7 90.8,65.7 97.2,61 90.8,54 99,47.2 90.2,42.5 89.5,29 "/>
<ellipse cx="66.2" cy="56.1" rx="2.2" ry="3.9"/>
<ellipse cx="78.1" cy="56.5" rx="2.1" ry="4.2"/>
<line class="st2" x1="63.2" y1="49.6" x2="69.8" y2="54.4"/>
<line class="st2" x1="81.8" y1="49.6" x2="75.2" y2="54.4"/>
<path class="st2" d="M67,66.5c1.1-3.2,5.3-1.9,10,0"/>
<polygon class="st3" points="55.2,54.7 38.7,62.3 58.5,57.1 "/>
<polygon class="st3" points="53.8,87 64.6,80.1 64.5,83 "/>
<polygon class="st3" points="82.8,74.2 80.9,73.7 83,83 "/>
<polygon class="st3" points="76.5,36.7 76.2,39.1 89.5,29 "/>
<polygon class="st3" points="56.9,66.6 55.4,70.5 59.5,70 56.8,69.7 "/>
<polygon class="st3" points="86.6,43.6 89.8,44 88.4,46 88.2,44.5 "/>
<ellipse class="st4" cx="39.6" cy="105.1" rx="14.4" ry="12.4"/>
<ellipse class="st4" cx="107.1" cy="23.1" rx="11.4" ry="9.9"/>
<path class="st5" d="M38.2,99c-7.9,2.5-9.6,6.8-3,13.5C33.6,108,34.6,103.5,38.2,99z"/>
<path class="st5" d="M107,16c-6.5,2-7.9,5.6-2.5,11.1C103.2,23.4,104,19.7,107,16z"/>
</svg>
