<svg id="Calque_1" data-name="Calque 1" xmlns="http://www.w3.org/2000/svg" xmlns:xlink="http://www.w3.org/1999/xlink" viewBox="0 0 153 142"><defs><style>.cls-1,.cls-2{fill:none;stroke-miterlimit:10;}.cls-1{stroke:#911d22;stroke-width:4px;}.cls-2{stroke-width:3px;stroke:url(#Gradiente_sem_nome_12);}</style><linearGradient id="Gradiente_sem_nome_12" x1="3.48" y1="62.66" x2="97" y2="62.66" gradientUnits="userSpaceOnUse"><stop offset="0" stop-color="#8579b7"/><stop offset="0.17" stop-color="#00a4aa"/><stop offset="0.93" stop-color="#8478b6"/><stop offset="1" stop-color="#e12422"/></linearGradient></defs><title>ilustras</title><path class="cls-1" d="M78.5,100.5c21.18-5.21,39.32-10.87,41-19"/><path class="cls-1" d="M74,7c-4.43,9.09-4.91,17.8,0,26-28.85-9.37-46.35,6.38-63,24l4,10C34,48.21,57.77,31.69,78.5,46.5c-.23,3.21,3.89,9.29,3,12-6,18.25-27.3,19.9-13.31,42.71a11.68,11.68,0,0,0,3.9,3.91c14.5,8.75,37.18,40,55.91,28.88,17.48-10.75,22-28.2,3.5-52.5-4.18-32.55-15-40-32-32,0,0-19-32.94-13.5-39.5Z"/><path class="cls-2" d="M4.5,66.5c54.37-50.71,86-38,91,25"/></svg>