<?xml version="1.0" encoding="utf-8"?>
<!-- Generator: Adobe Illustrator 19.0.0, SVG Export Plug-In . SVG Version: 6.00 Build 0)  -->
<svg version="1.1" id="Calque_1" xmlns="http://www.w3.org/2000/svg" xmlns:xlink="http://www.w3.org/1999/xlink" x="0px" y="0px"
	 viewBox="-215.5 67.1 223.2 469.1" style="enable-background:new -215.5 67.1 223.2 469.1;" xml:space="preserve">
<style type="text/css">
	.st0{fill:#F1E0D7;}
	.st1{fill:#2D2216;}
	.st2{fill:#E6E6E6;}
	.st3{fill:#4E6379;}
	.st4{fill:#2D435B;}
	.st5{fill:#65AF9E;}
	.st6{fill:#D8C2C0;}
	.st7{fill:#87E9D3;}
	.st8{fill:#8DDDC8;}
	.st9{fill:#17110B;}
	.st10{fill:#4BAF98;}
	.st11{fill:#7A3029;}
	.st12{fill:#A24037;}
	.st13{fill:#FC9686;}
</style>
<title>app_ilustracoes_</title>
<path class="st0" d="M-66.3,292.1l3,6.2l30-16.8l4.1-13.8c0.3-0.9,1.2-1.4,2.1-1.1c0.5,0.2,0.9,0.5,1.1,1l2.9,7.2l21.5-6.5
	c0.7-0.2,1.5,0.2,1.7,0.9c0.1,0.4,0,0.9-0.2,1.2l-4.2,5.6l8.9,0.7c0.8,0.1,1.4,0.8,1.4,1.6c0,0.4-0.2,0.7-0.5,1L1,283.6l5.6,1.8
	c0.8,0.3,1.3,1.1,1,1.9c-0.1,0.4-0.4,0.8-0.9,1c-9.6,6.8-16,9.3-30.8,13.8l-48.1,28.4c-2.2,1.3-5,0.6-6.3-1.5l-13.1-21.6
	L-66.3,292.1z"/>
<path class="st1" d="M-79.7,102.5c67.5-32.1,75.7,2.8,50.3,75.7c7.7,11,17.6,2.4,27.7-8.7C-9.3,198.7-28,211-66,193.8
	c1.4,6.8,5.2,10.1,10,12c-6.5,3.3-12.4,1-17-11.3L-79.7,102.5z"/>
<path class="st2" d="M-82,118.8l16.7-26.7c-50.7-34.5-97.3-31.6-141-2.3l18.7,30.3L-82,118.8z"/>
<ellipse transform="matrix(-0.1471 -0.9891 0.9891 -0.1471 -411.7933 -4.1193)" class="st0" cx="-207.7" cy="175.5" rx="11.7" ry="7.7"/>
<ellipse transform="matrix(-0.9891 -0.1471 0.1471 -0.9891 -157.6478 328.6404)" class="st0" cx="-66.7" cy="170.2" rx="7.7" ry="11.7"/>
<ellipse class="st0" cx="-135.9" cy="160" rx="71.3" ry="59.7"/>
<path class="st3" d="M-172.2,501.2c-27.7,7.9-40.7,19-32.3,34.7c20.4,1.1,41.8-1,63.9-5.6C-129.2,513.5-139.5,503.8-172.2,501.2z"/>
<path class="st4" d="M-169.6,509.5c1,0.8,28.2,10,28.2,10l-1.2,11l2-0.1C-128.5,513-140.7,507.2-169.6,509.5z"/>
<path class="st5" d="M-170,396.6l-3.2,93.8l-2.8,4.4v3l-2.3,6c13.3,9.7,27.2,12.9,41.7,11c5.8-16.3,7.9-87.4,11-144.7
	c0,39.7,4.7,81.2,12,123.7c-4.4,3.9-5.9,7.6-5.3,11c-2.1,5.3-1.5,6.8,0.3,6.3l49.2-3.3c-0.1-7.5-0.5-14.4-2.5-16.7V484
	c0-1.4-0.5-2.8-1.4-3.9l-2.2-2.7l-12-125.7l-78.3,1L-170,396.6z"/>
<path class="st6" d="M-140.3,127.7c-22.2,13.5-38.6,25.8-33.3,44.1C-171.6,160.8-155.6,145.1-140.3,127.7z"/>
<path class="st6" d="M-97.4,146.7c6.7,17.2,11.6,35,14.7,53.2l5-5.2C-81.1,176-87.6,159.9-97.4,146.7z"/>
<path class="st6" d="M-177.1,152.7c-7.8,17-14.8,33.3-14.9,44.2l-2.5-2.9C-196,176.1-190,162.4-177.1,152.7z"/>
<path class="st0" d="M-183.5,300.6l-4,97.5c3.4,7.8,13.5,9.9,19.8,6.8l3.5-98.2L-183.5,300.6z"/>
<path class="st1" d="M-140.3,127.8c18.5,20.6,35.9,38.1,49,42.3l-3.7-18.7c10.1,21.9,16.2,42.8,17,62.7
	c74.7-170.3-196.7-148.3-116.3,1.7c-0.1-24.7,1.8-47.8,16.3-60.3c-4.2,8.8-2.4,14,4.3,16.3C-175.4,159.2-160.6,144-140.3,127.8z"/>
<path class="st7" d="M-155,226.8c-12.3,8.5-25.7,17.4-28,22.3c-3.1,8.5-3.7,23-4.3,37.3l11.3,1c1.4,9.2,5,18,10.3,25.7l-8.3,85.7
	l11.3,12l33-51.7l37.3,47.7l15.7-20.7l-10.3-86l6.7-17l9.7-9.7c-1.9-12-5-23.1-10.3-32.7c-11-7.6-21.4-14.3-29.7-17.3L-155,226.8z"
	/>
<path class="st8" d="M-135.6,261.1c-12.4-2-22.4-8.4-36.8-22l5.2-4.5L-135.6,261.1z"/>
<path class="st0" d="M-154.2,214.8l0.2,20c13.8,11,28,10.3,44,0v-22L-154.2,214.8z"/>
<path class="st8" d="M-130.4,262.1c12.4-2,26.4-13.4,40.8-27l-5.2-3.5L-130.4,262.1z"/>
<path class="st2" d="M-155,226.8l-13.3,7c7.5,12.7,19,21.1,32.7,27.3l2.7-19L-155,226.8z"/>
<path class="st2" d="M-109,222.5l15.3,7.7c-8.3,13.8-21.6,25.2-36.7,32l-2.9-20.7L-109,222.5z"/>
<polygon class="st2" points="-176,287.5 -190.2,285.8 -189.2,305.8 -169.2,307.8 "/>
<polygon class="st2" points="-80.3,283.1 -68.3,270.6 -62,290.8 -86.3,305.1 -87,300.1 "/>
<path class="st3" d="M-118.8,524.3c-8-43.5,54.2-45.8,52.2,0.5C-85.8,533.5-103.4,534.3-118.8,524.3z"/>
<polygon class="st5" points="-129.7,359.1 -130.6,347.9 -131.4,336.7 -132.2,325.4 -133,314.2 -133.7,303 -134.4,291.7 
	-135.1,280.5 -135.7,269.2 -135.7,269.2 -135.7,269.2 -134.5,257.6 -133.3,246 -134.1,257.6 -135,269.2 -135,269.2 -134.2,280.4 
	-133.4,291.7 -132.7,302.9 -132,314.1 -131.4,325.4 -130.8,336.6 -130.2,347.9 "/>
<path class="st6" d="M-109.4,215.7c-7.9,1.8-15.9,2.6-24,2.3l24.4,4.4L-109.4,215.7z"/>
<path class="st9" d="M-78.4,118.4c15.1,4.8,13.4,23.3,13.4,40.2C-66.3,142.2-69,127-78.4,118.4z"/>
<polygon class="st6" points="-85.1,317.4 -84.4,305.7 -64.7,295.4 -65.6,293 -86.3,305.1 "/>
<polygon class="st6" points="-64.2,296.5 -70.1,303.4 -63.3,298.3 "/>
<polygon class="st6" points="-183.9,307.5 -171.1,311.2 -167.2,329.9 -165.7,313.1 -169.2,307.8 -184.1,306.4 "/>
<polygon class="st8" points="-176,287.5 -176.1,273.4 -177.9,286.5 -180.7,286.9 "/>
<polygon class="st8" points="-80.3,283.1 -85.2,268.4 -79.9,279.7 -75.7,278 "/>
<polygon class="st8" points="-87,300.1 -92.2,305.7 -86.4,306.7 "/>
<polygon class="st8" points="-165.7,313.1 -161.6,314.9 -166.2,320.7 "/>
<polygon class="st10" points="-171,406.7 -171,402.7 -162.9,410.8 -129.7,359.4 -92.4,406.8 -129.4,362.2 -162.3,413.2 "/>
<polygon class="st10" points="-176,497.8 -161.1,503.4 -176,494.8 "/>
<polygon class="st10" points="-173.2,490.4 -153.2,494 -173.1,481.4 "/>
<polygon class="st10" points="-136.2,510.5 -152.1,507.7 -134.4,504.4 "/>
<polygon class="st10" points="-113.7,493.8 -101.4,487 -114.6,488 "/>
<polygon class="st10" points="-72.4,487.4 -85.2,487.9 -72,491.1 "/>
<polygon class="st10" points="-76.4,473.5 -85.9,481.2 -75.7,477.5 "/>
<ellipse cx="-160.4" cy="170.8" rx="4.1" ry="9.9"/>
<ellipse cx="-112.5" cy="169.6" rx="4.1" ry="9.9"/>
<path class="st11" d="M-147.6,196.2c8.9,16.3,15.6,9.2,22,0C-125.6,196.2-147.7,196-147.6,196.2z"/>
<path class="st12" d="M-142.9,202.8c7.3,7.2,12.3,0.1,17.4-6.6C-134.4,197.1-143.2,198.1-142.9,202.8z"/>
<path class="st4" d="M-120,518.5c11,5,21.9,7,33,5.8c-10.2,2.9-21,1.9-33-2.8V518.5z"/>
<polygon class="st4" points="-141.3,524.7 -172.3,529.5 -141.1,526.5 "/>
<polygon class="st13" points="-127,79.2 -127,86.2 -132,86.2 -132,91.2 -140,91.2 -140,86.2 -145,86.2 -145,79.2 -140,79.2 
	-140,74.2 -132,74.2 -132,79.2 "/>
</svg>
