<?xml version="1.0" encoding="utf-8"?>
<!-- Generator: Adobe Illustrator 21.1.0, SVG Export Plug-In . SVG Version: 6.00 Build 0)  -->
<svg version="1.1" id="Calque_1" xmlns="http://www.w3.org/2000/svg" xmlns:xlink="http://www.w3.org/1999/xlink" x="0px" y="0px"
	 viewBox="0 0 213.8 469.2" style="enable-background:new 0 0 213.8 469.2;" xml:space="preserve">
<style type="text/css">
	.st0{fill:#F1E0D7;}
	.st1{fill:#2D2216;}
	.st2{fill:#FFFFFF;}
	.st3{fill:#4E6379;}
	.st4{fill:#2D435B;}
	.st5{fill:#65AF9E;}
	.st6{fill:#D8C2C0;}
	.st7{fill:#87E9D3;}
	.st8{fill:#8DDDC8;}
	.st9{fill:#17110B;}
	.st10{fill:#4BAF98;}
	.st11{fill:#FC9686;}
	.st12{fill:none;stroke:#7A3029;stroke-miterlimit:10;}
	.st13{fill:none;stroke:#000000;stroke-miterlimit:10;}
</style>
<title>_</title>
<polygon class="st0" points="27.9,223.9 27.6,276.3 54.5,289 55.5,265.7 48.8,260.5 50.5,253.2 50.1,234.5 "/>
<polygon class="st0" points="149.9,224.6 156.9,276.6 131.9,292.6 127.9,269.6 133.9,263.6 131.2,256.6 129.2,238 "/>
<path class="st1" d="M135.8,35.4c67.5-32.1,75.7,2.8,50.3,75.7c7.7,11,17.6,2.3,27.7-8.7c-7.6,29.2-26.3,41.5-64.3,24.3
	c1.4,6.8,5.2,10.1,10,12c-6.5,3.3-12.4,1-17-11.3L135.8,35.4z"/>
<path class="st2" d="M133.4,51.7l16.7-26.7C99.4-9.4,52.9-6.5,9.1,22.7l18.7,30.3L133.4,51.7z"/>
<ellipse transform="matrix(0.9891 -0.1471 0.1471 0.9891 -15.8628 2.3241)" class="st0" cx="7.8" cy="108.4" rx="7.7" ry="11.7"/>
<ellipse transform="matrix(0.1471 -0.9891 0.9891 0.1471 24.9458 235.066)" class="st0" cx="148.8" cy="103.1" rx="11.7" ry="7.7"/>
<ellipse class="st0" cx="79.5" cy="93" rx="71.3" ry="59.7"/>
<path class="st3" d="M43.3,434.2c-27.7,7.9-40.7,19-32.3,34.7c20.4,1.1,41.8-1,63.9-5.6C86.3,446.5,76,436.7,43.3,434.2z"/>
<path class="st4" d="M45.9,442.4c1,0.8,28.2,10,28.2,10l-1.2,11l2-0.1C86.9,445.9,74.8,440.2,45.9,442.4z"/>
<path class="st5" d="M45.4,329.6l-3.2,93.8l-2.8,4.4v3l-2.3,6c13.3,9.7,27.2,12.9,41.7,11c5.8-16.3,7.9-87.4,11-144.7
	c0,39.7,4.7,81.2,12,123.7c-4.4,3.9-5.8,7.6-5.3,11c-2.1,5.3-1.5,6.8,0.3,6.3l49.2-3.3c-0.1-7.5-0.5-14.4-2.5-16.7v-7.1
	c0-1.4-0.5-2.8-1.4-3.9l-2.2-2.7l-12-125.7l-78.3,1L45.4,329.6z"/>
<path class="st6" d="M75.1,60.6c-22.2,13.5-38.6,25.9-33.3,44.1C43.9,93.7,59.9,78,75.1,60.6z"/>
<path class="st6" d="M118,79.6c6.7,17.2,11.6,35,14.7,53.2l5-5.2C134.4,108.9,127.9,92.9,118,79.6z"/>
<path class="st6" d="M38.4,85.6c-7.8,17-14.8,33.3-14.9,44.2L21,127C19.4,109,25.4,95.3,38.4,85.6z"/>
<path class="st1" d="M75.1,60.7c18.5,20.6,35.9,38.1,49,42.3l-3.7-18.7c10.1,21.9,16.2,42.8,17,62.7C212.1-23.3-59.2-1.3,21.1,148.7
	C21,124,22.9,101,37.4,88.4c-4.2,8.8-2.4,14,4.3,16.3C40.1,92.2,54.9,76.9,75.1,60.7z"/>
<path class="st7" d="M60.4,159.7c-12.3,8.5-25.7,17.4-28,22.3c-3.1,8.5-3.7,23-4.3,37.3l11.3,1c1.4,9.2,5,18,10.3,25.7l-8.3,85.7
	l11.3,12l33-51.7l37.3,47.7l15.7-20.7l-10.3-86l6.7-17l9.7-9.7c-1.9-12-5-23.1-10.3-32.7c-11-7.6-21.4-14.3-29.7-17.3L60.4,159.7z"
	/>
<path class="st8" d="M79.9,194.1c-12.4-2-22.4-8.4-36.8-21.9l5.2-4.5L79.9,194.1z"/>
<path class="st0" d="M61.5,147.7l0.3,20c13.7,11,28.1,10.3,44.1,0v-22L61.5,147.7z"/>
<path class="st8" d="M85.1,195.1c12.4-2,26.4-13.4,40.8-26.9l-5.2-3.5L85.1,195.1z"/>
<path class="st2" d="M60.4,159.7l-13.3,7c7.5,12.7,19,21.1,32.7,27.3l2.7-19L60.4,159.7z"/>
<path class="st2" d="M106.4,155.4l15.3,7.7c-8.3,13.8-21.6,25.2-36.7,32l-2.9-20.7L106.4,155.4z"/>
<polygon class="st2" points="39.5,220.4 25.2,218.7 26.2,238.7 46.2,240.7 "/>
<polygon class="st2" points="135.1,216.1 147.2,203.5 153.4,223.7 129.2,238 128.4,233.1 "/>
<path class="st3" d="M96.7,457.2c-8-43.5,54.3-45.8,52.3,0.5C129.7,466.4,112.1,467.3,96.7,457.2z"/>
<polygon class="st5" points="82.1,178.9 81.5,190.5 80.9,202.2 80.9,202.1 81.5,213.3 82.1,224.6 82.8,235.8 83.4,247.1 84.1,258.3 
	84.7,269.6 85.3,280.8 85.8,292.1 84.9,280.8 84,269.6 83.2,258.4 82.5,247.1 81.7,235.9 81.1,224.6 80.4,213.4 79.8,202.1 
	79.8,202.1 79.8,202.1 80.9,190.5 "/>
<path class="st6" d="M106,148.6c-7.9,1.8-15.9,2.6-24,2.3l24.4,4.4L106,148.6z"/>
<path class="st9" d="M137,51.3c15.1,4.8,13.4,23.3,13.5,40.2C149.1,75.1,146.5,60,137,51.3z"/>
<polygon class="st6" points="130.4,250.3 131,238.6 150.7,228.3 149.9,226 129.2,238 "/>
<polygon class="st6" points="31.5,240.5 44.4,244.1 48.2,262.8 49.8,246.1 46.2,240.7 31.4,239.3 "/>
<polygon class="st8" points="39.5,220.4 39.4,206.3 37.5,219.5 34.7,219.8 "/>
<polygon class="st8" points="135.1,216.1 130.2,201.3 135.5,212.6 139.7,211 "/>
<polygon class="st8" points="128.4,233.1 123.2,238.6 129,239.6 "/>
<polygon class="st8" points="49.8,246.1 53.9,247.8 49.2,253.6 "/>
<polygon class="st10" points="44.9,339.6 44.9,335.6 52.8,343.7 85.9,292.3 123.1,339.7 86,295.1 53.4,346.1 "/>
<polygon class="st10" points="39.9,430.7 54.8,436.3 39.9,427.7 "/>
<polygon class="st10" points="42.3,423.3 62.2,427 42.4,414.3 "/>
<polygon class="st10" points="79.2,443.5 63.4,440.6 81,437.3 "/>
<polygon class="st10" points="101.8,426.7 114,420 100.9,421 "/>
<polygon class="st10" points="143,420.3 130.2,420.8 143.4,424.1 "/>
<polygon class="st10" points="139,406.5 129.5,414.1 139.8,410.4 "/>
<ellipse cx="55" cy="103.8" rx="4.1" ry="9.9"/>
<ellipse cx="103" cy="102.5" rx="4.1" ry="9.9"/>
<path class="st4" d="M95.9,451.4c10.2,5,21.7,6.9,33,5.8c-10.2,2.9-21.3,1.9-33-2.8V451.4z"/>
<polygon class="st4" points="74.1,457.6 43.1,462.4 74.4,459.4 "/>
<polygon class="st11" points="88.9,11.6 88.9,18.6 83.9,18.6 83.9,23.6 75.9,23.6 75.9,18.6 70.9,18.6 70.9,11.6 75.9,11.6 
	75.9,6.6 83.9,6.6 83.9,11.6 "/>
<path class="st12" d="M96.4,130.1c-3.7-1.7-10.5-1.2-16.5,3.5"/>
<path class="st13" d="M49.4,94.1c3.3,0.6,8-1,13-3"/>
<path class="st13" d="M95.4,89.1c2.9-1.5,6.3-1,10,1"/>
</svg>
