<?xml version="1.0" encoding="utf-8"?>
<!-- Generator: Adobe Illustrator 21.1.0, SVG Export Plug-In . SVG Version: 6.00 Build 0)  -->
<svg version="1.1" id="Calque_1" xmlns="http://www.w3.org/2000/svg" xmlns:xlink="http://www.w3.org/1999/xlink" x="0px" y="0px"
	 viewBox="0 0 151 134" style="enable-background:new 0 0 151 134;" xml:space="preserve">
<style type="text/css">
	.st0{fill:#941100;}
	.st1{fill:#CD4060;}
</style>
<title>app_</title>
<path class="st0" d="M2.7,108.7c19.5-39.1,42-76,77.3-103.3l6.7,6.7c-37.3,28.6-59.8,64.4-76,103.3L2.7,108.7z"/>
<path class="st0" d="M66.7,123.7c19.5-39.1,42-76,77.3-103.3l6.7,6.7c-37.3,28.6-59.8,64.4-76,103.3L66.7,123.7z"/>
<polygon class="st1" points="72,35.3 75.3,56.7 46,66.7 51.3,76 76,65.3 80,83.3 86,80 82.7,62.7 104,53.3 101.3,47.3 80.7,54.7 
	77.3,32.7 "/>
<polygon class="st1" points="44.2,105.2 62.2,76 72.8,70.7 73.5,78.2 51,108 "/>
<polygon class="st1" points="82.5,50.7 81.8,44.7 91.8,33.5 88.8,31 102.8,25.7 99.8,38.2 95.8,35.2 87.5,48 "/>
</svg>
