<?xml version="1.0" encoding="utf-8"?>
<!-- Generator: Adobe Illustrator 21.1.0, SVG Export Plug-In . SVG Version: 6.00 Build 0)  -->
<svg version="1.1" id="Calque_1" xmlns="http://www.w3.org/2000/svg" xmlns:xlink="http://www.w3.org/1999/xlink" x="0px" y="0px"
	 viewBox="0 0 153 139" style="enable-background:new 0 0 153 139;" xml:space="preserve">
<style type="text/css">
	.st0{fill:#941100;}
	.st1{fill:#C33A59;}
	.st2{fill:#B30930;}
	.st3{fill:url(#SVGID_1_);}
	.st4{fill:url(#SVGID_2_);}
</style>
<title>ilustras</title>
<path class="st0" d="M2.7,110.7c19.5-39.1,42-76,77.3-103.3l6.7,6.7c-37.3,28.6-59.8,64.4-76,103.3L2.7,110.7z"/>
<path class="st0" d="M66.7,125.7c19.5-39.1,42-76,77.3-103.3l6.7,6.7c-37.3,28.6-59.8,64.4-76,103.3L66.7,125.7z"/>
<ellipse class="st1" cx="37.8" cy="85.8" rx="10.5" ry="9"/>
<path class="st2" d="M36.8,81.3c-5.7,1.8-7,4.9-2.2,9.9C33.3,87.9,34,84.6,36.8,81.3z"/>
<ellipse transform="matrix(0.5243 -0.8515 0.8515 0.5243 -7.7231 107.8691)" class="st1" cx="92.7" cy="60.8" rx="10.5" ry="9"/>
<path class="st2" d="M97.1,62.3c1.5-5.8-0.5-8.6-7.2-7C93.2,55.9,95.7,58.2,97.1,62.3z"/>
<ellipse transform="matrix(0.8285 -0.5599 0.5599 0.8285 -2.8714 52.2079)" class="st1" cx="83.8" cy="30.8" rx="10.5" ry="9"/>
<path class="st2" d="M80.4,27.6c-3.7,4.7-3.1,8,3.7,9.4C81.3,35,80,31.9,80.4,27.6z"/>
<ellipse transform="matrix(0.4512 -0.8924 0.8924 0.4512 -68.3456 114.3793)" class="st1" cx="58.8" cy="112.8" rx="9" ry="10.5"/>
<path class="st2" d="M57.6,117.2c5.9,1,8.5-1.2,6.4-7.8C63.7,112.9,61.5,115.5,57.6,117.2z"/>
<linearGradient id="SVGID_1_" gradientUnits="userSpaceOnUse" x1="36.2645" y1="-686.7842" x2="66.3049" y2="-634.7392" gradientTransform="matrix(1 0 0 -1 0 -561.89)">
	<stop  offset="0" style="stop-color:#00A4E7"/>
	<stop  offset="0.11" style="stop-color:#05A3E3"/>
	<stop  offset="0.25" style="stop-color:#13A0D6"/>
	<stop  offset="0.39" style="stop-color:#2A9CC2"/>
	<stop  offset="0.54" style="stop-color:#4B96A5"/>
	<stop  offset="0.69" style="stop-color:#758E81"/>
	<stop  offset="0.85" style="stop-color:#A78454"/>
	<stop  offset="1" style="stop-color:#E17922"/>
</linearGradient>
<path class="st3" d="M67,76l2.6-0.5c-11.8,16.9-23.1,32-30.9,50.8l-5-4.7c9-18.1,20.7-32.7,32-49.1L67,76z"/>
<linearGradient id="SVGID_2_" gradientUnits="userSpaceOnUse" x1="88.5" y1="-580.19" x2="88.5" y2="-629.89" gradientTransform="matrix(1 0 0 -1 0 -561.89)">
	<stop  offset="0" style="stop-color:#00A4E7"/>
	<stop  offset="0.11" style="stop-color:#05A3E3"/>
	<stop  offset="0.25" style="stop-color:#13A0D6"/>
	<stop  offset="0.39" style="stop-color:#2A9CC2"/>
	<stop  offset="0.54" style="stop-color:#4B96A5"/>
	<stop  offset="0.69" style="stop-color:#758E81"/>
	<stop  offset="0.85" style="stop-color:#A78454"/>
	<stop  offset="1" style="stop-color:#E17922"/>
</linearGradient>
<path class="st4" d="M114.7,23C96.3,37.1,82,54,66.3,68H63l-0.7-2.8C78,52,92.8,32.4,111,18.3L114.7,23z"/>
<ellipse transform="matrix(0.4512 -0.8924 0.8924 0.4512 -3.2586 84.5603)" class="st1" cx="67.1" cy="44.9" rx="6.3" ry="7.4"/>
<path class="st2" d="M66.4,48.1c4.2,0.7,5.9-0.9,4.5-5.5C70.6,45,69.1,46.8,66.4,48.1z"/>
<ellipse transform="matrix(0.9171 -0.3987 0.3987 0.9171 -7.8584 47.2245)" class="st1" cx="109.6" cy="42.5" rx="7.4" ry="6.4"/>
<path class="st2" d="M111.1,44.5c3.2-2.8,3.1-5.1-1.4-6.9C111.4,39.3,111.9,41.7,111.1,44.5z"/>
</svg>
