<?xml version="1.0" encoding="utf-8"?>
<!-- Generator: Adobe Illustrator 21.1.0, SVG Export Plug-In . SVG Version: 6.00 Build 0)  -->
<svg version="1.1" id="Calque_1" xmlns="http://www.w3.org/2000/svg" xmlns:xlink="http://www.w3.org/1999/xlink" x="0px" y="0px"
	 viewBox="0 0 152 130" style="enable-background:new 0 0 152 130;" xml:space="preserve">
<style type="text/css">
	.st0{fill:#941100;}
	.st1{fill:#C33A59;}
	.st2{fill:#B30930;}
	.st3{fill:#67333E;}
</style>
<title>app_</title>
<path class="st0" d="M3.7,108.7c19.5-39.1,42-76,77.3-103.3l6.7,6.7c-37.3,28.6-59.8,64.4-76,103.3L3.7,108.7z"/>
<path class="st0" d="M67.7,123.7c19.5-39.1,42-76,77.3-103.3l6.7,6.7c-37.3,28.6-59.8,64.4-76,103.3L67.7,123.7z"/>
<ellipse transform="matrix(0.9307 -0.3659 0.3659 0.9307 -11.1783 28.5766)" class="st1" cx="69.8" cy="43.8" rx="9" ry="10.5"/>
<path class="st2" d="M66,46.4c3.8,4.7,7.2,4.7,10-1.6C73.3,47.1,70,47.6,66,46.4z"/>
<ellipse transform="matrix(0.9307 -0.3659 0.3659 0.9307 -12.4404 35.9831)" class="st1" cx="88.7" cy="50.8" rx="9" ry="10.5"/>
<path class="st2" d="M85,53.4c3.8,4.7,7.2,4.7,10-1.6C92.3,54.1,89,54.6,85,53.4z"/>
<ellipse transform="matrix(0.3011 -0.9536 0.9536 0.3011 33.4731 130.3998)" class="st1" cx="105.7" cy="42.4" rx="10.5" ry="9"/>
<path class="st2" d="M101.2,41.4c0,6,2.6,8.2,8.8,5C106.5,46.6,103.6,45,101.2,41.4z"/>
<ellipse transform="matrix(0.8966 -0.4429 0.4429 0.8966 -3.7971 41.3849)" class="st1" cx="86.7" cy="28.8" rx="10.5" ry="9"/>
<path class="st2" d="M89.6,32.4c4.3-4.2,4.1-7.5-2.4-9.8C89.8,24.9,90.6,28.2,89.6,32.4z"/>
<ellipse transform="matrix(0.9307 -0.3659 0.3659 0.9307 -29.6362 19.1886)" class="st1" cx="35.8" cy="87.8" rx="9" ry="10.5"/>
<path class="st2" d="M32,90.4c3.8,4.7,7.2,4.7,10-1.6C39.3,91.1,36,91.6,32,90.4z"/>
<ellipse transform="matrix(0.7321 -0.6812 0.6812 0.7321 -50.6217 62.9487)" class="st1" cx="54.7" cy="95.8" rx="10.5" ry="9"/>
<path class="st2" d="M58.5,98.4c3-5.2,1.8-8.4-5.1-8.7C56.5,91.2,58.2,94.1,58.5,98.4z"/>
<ellipse transform="matrix(0.7609 -0.6489 0.6489 0.7609 -60.4763 65.5589)" class="st1" cx="58.7" cy="114.8" rx="10.5" ry="9"/>
<path class="st2" d="M55.1,112c-3.2,5.1-2.1,8.3,4.7,8.9C56.8,119.3,55.2,116.3,55.1,112z"/>
<ellipse transform="matrix(0.9307 -0.3659 0.3659 0.9307 -23.9368 23.1182)" class="st3" cx="49" cy="74.7" rx="7.2" ry="8.4"/>
<ellipse transform="matrix(0.9803 -0.1977 0.1977 0.9803 -14.3361 14.3922)" class="st3" cx="64.9" cy="79" rx="7.2" ry="8.4"/>
<ellipse transform="matrix(0.1342 -0.991 0.991 0.1342 -19.6197 153.4176)" class="st3" cx="78" cy="87.9" rx="8.4" ry="7.2"/>
<ellipse transform="matrix(0.9307 -0.3659 0.3659 0.9307 -31.9958 32.9408)" class="st3" cx="70.9" cy="100.9" rx="5.6" ry="6.5"/>
<ellipse transform="matrix(0.9844 -0.1762 0.1762 0.9844 -9.435 10.1621)" class="st3" cx="52.5" cy="58.2" rx="5.6" ry="6.5"/>
<ellipse transform="matrix(0.9307 -0.3659 0.3659 0.9307 -17.9881 28.4995)" class="st3" cx="66.2" cy="61.7" rx="7.2" ry="8.4"/>
<ellipse transform="matrix(0.9844 -0.1762 0.1762 0.9844 -11.3215 15.0882)" class="st3" cx="79.3" cy="71.3" rx="5.6" ry="6.5"/>
<ellipse transform="matrix(0.9844 -0.1762 0.1762 0.9844 -10.6678 17.0531)" class="st3" cx="90.7" cy="68.6" rx="4.7" ry="5.5"/>
<ellipse transform="matrix(0.9844 -0.1762 0.1762 0.9844 -12.6944 16.6468)" class="st3" cx="87.4" cy="79.8" rx="3.6" ry="4.2"/>
<ellipse transform="matrix(0.9844 -0.1762 0.1762 0.9844 -10.4445 8.7754)" class="st3" cx="44.2" cy="63.2" rx="3.2" ry="3.7"/>
</svg>
